<svg xmlns="http://www.w3.org/2000/svg" width="128" height="128" viewBox="0 0 128 128">
  <defs>
    <linearGradient id="bg" x1="0" y1="0" x2="1" y2="1">
      <stop offset="0" stop-color="#1f6feb"/>
      <stop offset="1" stop-color="#0d3b8f"/>
    </linearGradient>
    <linearGradient id="pencil" x1="0" y1="0" x2="0" y2="1">
      <stop offset="0" stop-color="#7ee787"/>
      <stop offset="1" stop-color="#2ea043"/>
    </linearGradient>
  </defs>
  <rect x="8" y="8" width="112" height="112" rx="24" fill="url(#bg)"/>
  <rect x="8" y="8" width="112" height="112" rx="24" fill="none" stroke="#12233f" stroke-width="4"/>
  <path d="M8 74 C34 54 66 46 120 40 L120 34 C64 38 26 50 8 66 Z" fill="#ffffff" opacity="0.08"/>
  <circle cx="64" cy="62" r="26" fill="none" stroke="#ffffff" stroke-width="13" stroke-dasharray="11 9.5"/>
  <circle cx="64" cy="62" r="20" fill="#ffffff"/>
  <circle cx="64" cy="62" r="8" fill="url(#bg)"/>
  <g transform="rotate(45 46 42)">
    <rect x="18" y="37" width="6" height="10" rx="1.5" fill="#ff9da3"/>
    <rect x="24" y="39" width="4" height="6" fill="#b0483c"/>
    <rect x="28" y="39" width="38" height="6" rx="2" fill="url(#pencil)"/>
    <path d="M66 39 L71.5 42 L66 45 Z" fill="#ffd76d"/>
    <path d="M69.5 41 L71.5 42 L69.5 43 Z" fill="#1f2328"/>
  </g>
</svg>
